<svg width="512" height="512" xmlns="http://www.w3.org/2000/svg">
 <title>AniList logo</title>

 <desc>Anime and manga tracking website</desc>
 <g>
  <title>Layer 1</title>
  <path id="svg_2" fill="currentColor" d="m321.92,324.08632l0,-186.67c0,-10.698 -5.887,-16.602 -16.558,-16.602l-36.433,0c-10.672,0 -16.561,5.904 -16.561,16.602l0,88.651c0,2.497 23.996,14.089 24.623,16.541c18.282,71.61 3.972,128.92 -13.359,131.6c28.337,1.405 31.455,15.064 10.348,5.731c3.229,-38.209 15.828,-38.134 52.049,-1.406c0.31,0.317 7.427,15.282 7.87,15.282l85.545,0c10.672,0 16.558,-5.9 16.558,-16.6l0,-36.524c0,-10.698 -5.886,-16.602 -16.558,-16.602l-97.524,-0.003z"/>
  <path id="svg_3" fill="currentColor" d="m171.68,121l-95.681,273l74.338,0l16.192,-47.222l80.96,0l15.826,47.222l73.968,0l-95.314,-273l-70.289,0zm11.776,165.28l23.183,-75.629l25.393,75.629l-48.576,0z"/>
 </g>
</svg>